<svg width="135" height="28" xmlns="http://www.w3.org/2000/svg">
  <path d="M17.17 20.444H6.711L3.988 26.47H0L12.11.15l11.674 26.37h-4.037l-2.578-6.075zm-1.509-3.506l-3.599-8.444-3.794 8.444h7.393zM50 5.185h-9.777v5.975h9.485v3.507h-9.485v8.296H50v3.506H36.527V1.68H50v3.506zm22.81 10.716l7.54 10.568h-4.475L68.92 16.296h-.681V26.47h-3.697V1.68h4.329c3.21 0 5.545.593 7.004 1.827 1.605 1.383 2.383 3.16 2.383 5.432 0 1.778-.486 3.26-1.508 4.543-.972 1.284-2.286 2.075-3.94 2.42zm-4.571-2.815h1.167c3.502 0 5.253-1.333 5.253-4.049 0-2.518-1.702-3.802-5.107-3.802h-1.313v7.851zM97.47 1.68v24.79h-3.696V1.68h3.696zm15.613 24.79V0l17.801 18.914V1.679h3.697V28L116.73 9.136v17.383h-3.648v-.05z" fill="#4C4E59" fill-rule="nonzero"/>
</svg>
